<mxfile host="app.diagrams.net" agent="Mozilla/5.0 (Windows NT 10.0; Win64; x64) AppleWebKit/537.36 (KHTML, like Gecko) Chrome/140.0.0.0 Safari/537.36" version="28.2.5">
  <diagram name="Page-1" id="33oWQRn0t7OM1QqlTzfI">
    <mxGraphModel dx="2431" dy="884" grid="1" gridSize="10" guides="1" tooltips="1" connect="1" arrows="1" fold="1" page="1" pageScale="1" pageWidth="850" pageHeight="1100" math="0" shadow="0">
      <root>
        <mxCell id="0" />
        <mxCell id="1" parent="0" />
        <mxCell id="2zCQIZOPLvon9Fr867FO-2" value="&lt;div&gt;IF&lt;/div&gt;i &amp;gt; 0 and j &amp;gt; 0" style="rhombus;whiteSpace=wrap;html=1;" vertex="1" parent="1">
          <mxGeometry x="227.5" y="360" width="195" height="80" as="geometry" />
        </mxCell>
        <mxCell id="2zCQIZOPLvon9Fr867FO-86" value="" style="edgeStyle=orthogonalEdgeStyle;rounded=0;orthogonalLoop=1;jettySize=auto;html=1;" edge="1" parent="1" source="2zCQIZOPLvon9Fr867FO-3" target="2zCQIZOPLvon9Fr867FO-52">
          <mxGeometry relative="1" as="geometry" />
        </mxCell>
        <mxCell id="2zCQIZOPLvon9Fr867FO-3" value="EXECUTE&lt;div&gt;STATEMENT 2&lt;/div&gt;" style="rounded=0;whiteSpace=wrap;html=1;" vertex="1" parent="1">
          <mxGeometry x="265" y="610" width="120" height="60" as="geometry" />
        </mxCell>
        <mxCell id="2zCQIZOPLvon9Fr867FO-87" value="" style="edgeStyle=orthogonalEdgeStyle;rounded=0;orthogonalLoop=1;jettySize=auto;html=1;" edge="1" parent="1" source="2zCQIZOPLvon9Fr867FO-4" target="2zCQIZOPLvon9Fr867FO-9">
          <mxGeometry relative="1" as="geometry" />
        </mxCell>
        <mxCell id="2zCQIZOPLvon9Fr867FO-4" value="&lt;div&gt;EXECUTE&lt;/div&gt;STATEMENT 1" style="rounded=0;whiteSpace=wrap;html=1;" vertex="1" parent="1">
          <mxGeometry x="75" y="610" width="120" height="60" as="geometry" />
        </mxCell>
        <mxCell id="2zCQIZOPLvon9Fr867FO-88" value="" style="edgeStyle=orthogonalEdgeStyle;rounded=0;orthogonalLoop=1;jettySize=auto;html=1;" edge="1" parent="1" source="2zCQIZOPLvon9Fr867FO-5" target="2zCQIZOPLvon9Fr867FO-53">
          <mxGeometry relative="1" as="geometry" />
        </mxCell>
        <mxCell id="2zCQIZOPLvon9Fr867FO-5" value="EXECUTE&lt;div&gt;STATEMENT 3&lt;/div&gt;" style="rounded=0;whiteSpace=wrap;html=1;" vertex="1" parent="1">
          <mxGeometry x="455" y="609" width="120" height="60" as="geometry" />
        </mxCell>
        <mxCell id="2zCQIZOPLvon9Fr867FO-44" value="" style="edgeStyle=orthogonalEdgeStyle;rounded=0;orthogonalLoop=1;jettySize=auto;html=1;" edge="1" parent="1" target="2zCQIZOPLvon9Fr867FO-4">
          <mxGeometry relative="1" as="geometry">
            <mxPoint x="135" y="480" as="sourcePoint" />
          </mxGeometry>
        </mxCell>
        <mxCell id="2zCQIZOPLvon9Fr867FO-7" value="&lt;div&gt;&lt;span style=&quot;background-color: transparent; color: light-dark(rgb(0, 0, 0), rgb(255, 255, 255));&quot;&gt;elseif&lt;/span&gt;&lt;/div&gt;&lt;div&gt;&lt;span style=&quot;background-color: transparent; color: light-dark(rgb(0, 0, 0), rgb(255, 255, 255));&quot;&gt;not(i &amp;gt; 0) and j &amp;gt; 0&lt;/span&gt;&lt;/div&gt;" style="rhombus;whiteSpace=wrap;html=1;" vertex="1" parent="1">
          <mxGeometry x="425" y="440" width="160" height="80" as="geometry" />
        </mxCell>
        <mxCell id="2zCQIZOPLvon9Fr867FO-8" value="&lt;div&gt;&lt;span style=&quot;background-color: transparent; color: light-dark(rgb(0, 0, 0), rgb(255, 255, 255));&quot;&gt;else&lt;/span&gt;&lt;/div&gt;&lt;div&gt;&lt;span style=&quot;background-color: transparent; color: light-dark(rgb(0, 0, 0), rgb(255, 255, 255));&quot;&gt;i &amp;gt; 0 and not(j &amp;gt; 0)&lt;/span&gt;&lt;/div&gt;" style="rhombus;whiteSpace=wrap;html=1;" vertex="1" parent="1">
          <mxGeometry x="610" y="520" width="150" height="80" as="geometry" />
        </mxCell>
        <mxCell id="2zCQIZOPLvon9Fr867FO-9" value="&lt;div&gt;print&lt;/div&gt;STATEMENT 1" style="shape=parallelogram;perimeter=parallelogramPerimeter;whiteSpace=wrap;html=1;fixedSize=1;" vertex="1" parent="1">
          <mxGeometry x="75" y="720" width="120" height="60" as="geometry" />
        </mxCell>
        <mxCell id="2zCQIZOPLvon9Fr867FO-15" value="" style="endArrow=none;html=1;rounded=0;exitX=0.5;exitY=0;exitDx=0;exitDy=0;entryX=0;entryY=0.5;entryDx=0;entryDy=0;" edge="1" parent="1" target="2zCQIZOPLvon9Fr867FO-2">
          <mxGeometry width="50" height="50" relative="1" as="geometry">
            <mxPoint x="135" y="485" as="sourcePoint" />
            <mxPoint x="205" y="400" as="targetPoint" />
            <Array as="points">
              <mxPoint x="135" y="400" />
            </Array>
          </mxGeometry>
        </mxCell>
        <mxCell id="2zCQIZOPLvon9Fr867FO-16" value="" style="endArrow=none;html=1;rounded=0;entryX=0.5;entryY=1;entryDx=0;entryDy=0;exitX=0.5;exitY=1;exitDx=0;exitDy=0;" edge="1" parent="1" source="2zCQIZOPLvon9Fr867FO-2" target="2zCQIZOPLvon9Fr867FO-2">
          <mxGeometry width="50" height="50" relative="1" as="geometry">
            <mxPoint x="315" y="490" as="sourcePoint" />
            <mxPoint x="345" y="450" as="targetPoint" />
          </mxGeometry>
        </mxCell>
        <mxCell id="2zCQIZOPLvon9Fr867FO-83" value="" style="edgeStyle=orthogonalEdgeStyle;rounded=0;orthogonalLoop=1;jettySize=auto;html=1;" edge="1" parent="1" source="2zCQIZOPLvon9Fr867FO-32" target="2zCQIZOPLvon9Fr867FO-34">
          <mxGeometry relative="1" as="geometry" />
        </mxCell>
        <mxCell id="2zCQIZOPLvon9Fr867FO-32" value="INPUT&lt;div&gt;INT(INPUT(I))&lt;/div&gt;&lt;div&gt;&lt;br&gt;&lt;/div&gt;" style="shape=parallelogram;perimeter=parallelogramPerimeter;whiteSpace=wrap;html=1;fixedSize=1;" vertex="1" parent="1">
          <mxGeometry x="55" y="130" width="120" height="60" as="geometry" />
        </mxCell>
        <mxCell id="2zCQIZOPLvon9Fr867FO-34" value="INPUT&lt;div&gt;INT(INPUT(j&lt;span style=&quot;background-color: transparent; color: light-dark(rgb(0, 0, 0), rgb(255, 255, 255));&quot;&gt;)&amp;nbsp;&lt;/span&gt;&lt;/div&gt;" style="shape=parallelogram;perimeter=parallelogramPerimeter;whiteSpace=wrap;html=1;fixedSize=1;" vertex="1" parent="1">
          <mxGeometry x="55" y="220" width="120" height="60" as="geometry" />
        </mxCell>
        <mxCell id="2zCQIZOPLvon9Fr867FO-38" value="" style="endArrow=none;html=1;rounded=0;" edge="1" parent="1" source="2zCQIZOPLvon9Fr867FO-2">
          <mxGeometry width="50" height="50" relative="1" as="geometry">
            <mxPoint x="575" y="510" as="sourcePoint" />
            <mxPoint x="325" y="340" as="targetPoint" />
          </mxGeometry>
        </mxCell>
        <mxCell id="2zCQIZOPLvon9Fr867FO-40" value="END" style="ellipse;whiteSpace=wrap;html=1;" vertex="1" parent="1">
          <mxGeometry x="275" y="820" width="120" height="80" as="geometry" />
        </mxCell>
        <mxCell id="2zCQIZOPLvon9Fr867FO-45" value="" style="endArrow=none;html=1;rounded=0;entryX=0.5;entryY=1;entryDx=0;entryDy=0;exitX=0;exitY=0.5;exitDx=0;exitDy=0;" edge="1" parent="1" source="2zCQIZOPLvon9Fr867FO-40" target="2zCQIZOPLvon9Fr867FO-9">
          <mxGeometry width="50" height="50" relative="1" as="geometry">
            <mxPoint x="575" y="610" as="sourcePoint" />
            <mxPoint x="625" y="560" as="targetPoint" />
            <Array as="points">
              <mxPoint x="135" y="860" />
            </Array>
          </mxGeometry>
        </mxCell>
        <mxCell id="2zCQIZOPLvon9Fr867FO-47" value="true" style="text;html=1;align=center;verticalAlign=middle;whiteSpace=wrap;rounded=0;" vertex="1" parent="1">
          <mxGeometry x="225" y="360" width="60" height="30" as="geometry" />
        </mxCell>
        <mxCell id="2zCQIZOPLvon9Fr867FO-48" value="false" style="text;html=1;align=center;verticalAlign=middle;whiteSpace=wrap;rounded=0;" vertex="1" parent="1">
          <mxGeometry x="365" y="360" width="60" height="30" as="geometry" />
        </mxCell>
        <mxCell id="2zCQIZOPLvon9Fr867FO-89" value="" style="edgeStyle=orthogonalEdgeStyle;rounded=0;orthogonalLoop=1;jettySize=auto;html=1;" edge="1" parent="1" source="2zCQIZOPLvon9Fr867FO-52" target="2zCQIZOPLvon9Fr867FO-40">
          <mxGeometry relative="1" as="geometry" />
        </mxCell>
        <mxCell id="2zCQIZOPLvon9Fr867FO-52" value="&lt;div&gt;print&lt;/div&gt;STATEMENT 2" style="shape=parallelogram;perimeter=parallelogramPerimeter;whiteSpace=wrap;html=1;fixedSize=1;" vertex="1" parent="1">
          <mxGeometry x="275" y="710" width="120" height="60" as="geometry" />
        </mxCell>
        <mxCell id="2zCQIZOPLvon9Fr867FO-53" value="&lt;div&gt;print&lt;/div&gt;STATEMENT 3" style="shape=parallelogram;perimeter=parallelogramPerimeter;whiteSpace=wrap;html=1;fixedSize=1;" vertex="1" parent="1">
          <mxGeometry x="455" y="710" width="120" height="60" as="geometry" />
        </mxCell>
        <mxCell id="2zCQIZOPLvon9Fr867FO-56" value="true" style="text;html=1;align=center;verticalAlign=middle;whiteSpace=wrap;rounded=0;" vertex="1" parent="1">
          <mxGeometry x="415" y="440" width="60" height="30" as="geometry" />
        </mxCell>
        <mxCell id="2zCQIZOPLvon9Fr867FO-58" value="false" style="text;html=1;align=center;verticalAlign=middle;whiteSpace=wrap;rounded=0;" vertex="1" parent="1">
          <mxGeometry x="535" y="440" width="60" height="30" as="geometry" />
        </mxCell>
        <mxCell id="2zCQIZOPLvon9Fr867FO-59" value="true" style="text;html=1;align=center;verticalAlign=middle;whiteSpace=wrap;rounded=0;" vertex="1" parent="1">
          <mxGeometry x="610" y="520" width="60" height="30" as="geometry" />
        </mxCell>
        <mxCell id="2zCQIZOPLvon9Fr867FO-60" value="false" style="text;html=1;align=center;verticalAlign=middle;whiteSpace=wrap;rounded=0;" vertex="1" parent="1">
          <mxGeometry x="705" y="520" width="60" height="30" as="geometry" />
        </mxCell>
        <mxCell id="2zCQIZOPLvon9Fr867FO-61" value="" style="endArrow=none;html=1;rounded=0;exitX=1;exitY=0.5;exitDx=0;exitDy=0;entryX=0.5;entryY=0;entryDx=0;entryDy=0;" edge="1" parent="1" source="2zCQIZOPLvon9Fr867FO-2" target="2zCQIZOPLvon9Fr867FO-7">
          <mxGeometry width="50" height="50" relative="1" as="geometry">
            <mxPoint x="575" y="580" as="sourcePoint" />
            <mxPoint x="495" y="440" as="targetPoint" />
            <Array as="points">
              <mxPoint x="505" y="400" />
            </Array>
          </mxGeometry>
        </mxCell>
        <mxCell id="2zCQIZOPLvon9Fr867FO-62" value="" style="endArrow=none;html=1;rounded=0;entryX=0;entryY=0.5;entryDx=0;entryDy=0;exitX=0.5;exitY=0;exitDx=0;exitDy=0;" edge="1" parent="1" source="2zCQIZOPLvon9Fr867FO-3" target="2zCQIZOPLvon9Fr867FO-7">
          <mxGeometry width="50" height="50" relative="1" as="geometry">
            <mxPoint x="575" y="580" as="sourcePoint" />
            <mxPoint x="625" y="530" as="targetPoint" />
            <Array as="points">
              <mxPoint x="325" y="480" />
            </Array>
          </mxGeometry>
        </mxCell>
        <mxCell id="2zCQIZOPLvon9Fr867FO-65" value="" style="endArrow=none;html=1;rounded=0;exitX=1;exitY=0.5;exitDx=0;exitDy=0;entryX=0.5;entryY=0;entryDx=0;entryDy=0;" edge="1" parent="1" source="2zCQIZOPLvon9Fr867FO-7" target="2zCQIZOPLvon9Fr867FO-8">
          <mxGeometry width="50" height="50" relative="1" as="geometry">
            <mxPoint x="575" y="580" as="sourcePoint" />
            <mxPoint x="625" y="530" as="targetPoint" />
            <Array as="points">
              <mxPoint x="685" y="480" />
            </Array>
          </mxGeometry>
        </mxCell>
        <mxCell id="2zCQIZOPLvon9Fr867FO-66" value="" style="endArrow=none;html=1;rounded=0;exitX=0.433;exitY=0.083;exitDx=0;exitDy=0;exitPerimeter=0;entryX=0;entryY=0.5;entryDx=0;entryDy=0;" edge="1" parent="1" source="2zCQIZOPLvon9Fr867FO-5" target="2zCQIZOPLvon9Fr867FO-8">
          <mxGeometry width="50" height="50" relative="1" as="geometry">
            <mxPoint x="575" y="580" as="sourcePoint" />
            <mxPoint x="625" y="530" as="targetPoint" />
            <Array as="points">
              <mxPoint x="505" y="560" />
            </Array>
          </mxGeometry>
        </mxCell>
        <mxCell id="2zCQIZOPLvon9Fr867FO-68" value="" style="endArrow=none;html=1;rounded=0;entryX=0.5;entryY=1;entryDx=0;entryDy=0;exitX=1;exitY=0.5;exitDx=0;exitDy=0;" edge="1" parent="1" source="2zCQIZOPLvon9Fr867FO-40" target="2zCQIZOPLvon9Fr867FO-53">
          <mxGeometry width="50" height="50" relative="1" as="geometry">
            <mxPoint x="515" y="860" as="sourcePoint" />
            <mxPoint x="625" y="530" as="targetPoint" />
            <Array as="points">
              <mxPoint x="515" y="860" />
            </Array>
          </mxGeometry>
        </mxCell>
        <mxCell id="2zCQIZOPLvon9Fr867FO-69" value="" style="endArrow=none;dashed=1;html=1;rounded=0;entryX=1;entryY=0.5;entryDx=0;entryDy=0;exitX=1;exitY=0.625;exitDx=0;exitDy=0;exitPerimeter=0;" edge="1" parent="1" source="2zCQIZOPLvon9Fr867FO-40" target="2zCQIZOPLvon9Fr867FO-8">
          <mxGeometry width="50" height="50" relative="1" as="geometry">
            <mxPoint x="515" y="870" as="sourcePoint" />
            <mxPoint x="625" y="530" as="targetPoint" />
            <Array as="points">
              <mxPoint x="760" y="870" />
            </Array>
          </mxGeometry>
        </mxCell>
        <mxCell id="2zCQIZOPLvon9Fr867FO-70" value="null condition" style="text;html=1;align=center;verticalAlign=middle;whiteSpace=wrap;rounded=0;" vertex="1" parent="1">
          <mxGeometry x="700" y="720" width="60" height="30" as="geometry" />
        </mxCell>
        <mxCell id="2zCQIZOPLvon9Fr867FO-71" value="&lt;h1 style=&quot;margin-top: 0px;&quot;&gt;&lt;span style=&quot;background-color: transparent; color: light-dark(rgb(0, 0, 0), rgb(255, 255, 255));&quot;&gt;Geof Djernaes&lt;/span&gt;&lt;/h1&gt;&lt;div&gt;W7, A1 if else flow chart&lt;/div&gt;&lt;div&gt;&lt;br&gt;&lt;/div&gt;" style="text;html=1;whiteSpace=wrap;overflow=hidden;rounded=0;" vertex="1" parent="1">
          <mxGeometry x="645" y="20" width="180" height="120" as="geometry" />
        </mxCell>
        <mxCell id="2zCQIZOPLvon9Fr867FO-82" value="" style="edgeStyle=orthogonalEdgeStyle;rounded=0;orthogonalLoop=1;jettySize=auto;html=1;" edge="1" parent="1" source="2zCQIZOPLvon9Fr867FO-72" target="2zCQIZOPLvon9Fr867FO-32">
          <mxGeometry relative="1" as="geometry" />
        </mxCell>
        <mxCell id="2zCQIZOPLvon9Fr867FO-72" value="start" style="ellipse;whiteSpace=wrap;html=1;" vertex="1" parent="1">
          <mxGeometry x="55" y="20" width="120" height="80" as="geometry" />
        </mxCell>
        <mxCell id="2zCQIZOPLvon9Fr867FO-75" value="variable&lt;div&gt;i&lt;/div&gt;" style="rounded=0;whiteSpace=wrap;html=1;" vertex="1" parent="1">
          <mxGeometry x="265" y="130" width="120" height="60" as="geometry" />
        </mxCell>
        <mxCell id="2zCQIZOPLvon9Fr867FO-81" value="" style="edgeStyle=orthogonalEdgeStyle;rounded=0;orthogonalLoop=1;jettySize=auto;html=1;" edge="1" parent="1" source="2zCQIZOPLvon9Fr867FO-76" target="2zCQIZOPLvon9Fr867FO-2">
          <mxGeometry relative="1" as="geometry" />
        </mxCell>
        <mxCell id="2zCQIZOPLvon9Fr867FO-76" value="variable&lt;div&gt;j&lt;/div&gt;" style="rounded=0;whiteSpace=wrap;html=1;" vertex="1" parent="1">
          <mxGeometry x="265" y="220" width="120" height="60" as="geometry" />
        </mxCell>
        <mxCell id="2zCQIZOPLvon9Fr867FO-80" value="" style="endArrow=none;html=1;rounded=0;entryX=1;entryY=0.5;entryDx=0;entryDy=0;" edge="1" parent="1" target="2zCQIZOPLvon9Fr867FO-75">
          <mxGeometry width="50" height="50" relative="1" as="geometry">
            <mxPoint x="325" y="330" as="sourcePoint" />
            <mxPoint x="645" y="340" as="targetPoint" />
            <Array as="points">
              <mxPoint x="425" y="330" />
              <mxPoint x="425" y="160" />
            </Array>
          </mxGeometry>
        </mxCell>
        <mxCell id="2zCQIZOPLvon9Fr867FO-84" value="" style="endArrow=none;dashed=1;html=1;dashPattern=1 3;strokeWidth=2;rounded=0;exitX=1;exitY=0.5;exitDx=0;exitDy=0;entryX=0;entryY=0.5;entryDx=0;entryDy=0;" edge="1" parent="1" source="2zCQIZOPLvon9Fr867FO-34" target="2zCQIZOPLvon9Fr867FO-76">
          <mxGeometry width="50" height="50" relative="1" as="geometry">
            <mxPoint x="595" y="390" as="sourcePoint" />
            <mxPoint x="645" y="340" as="targetPoint" />
          </mxGeometry>
        </mxCell>
        <mxCell id="2zCQIZOPLvon9Fr867FO-85" value="" style="endArrow=none;dashed=1;html=1;dashPattern=1 3;strokeWidth=2;rounded=0;exitX=1;exitY=0.5;exitDx=0;exitDy=0;entryX=0;entryY=0.5;entryDx=0;entryDy=0;" edge="1" parent="1" source="2zCQIZOPLvon9Fr867FO-32" target="2zCQIZOPLvon9Fr867FO-75">
          <mxGeometry width="50" height="50" relative="1" as="geometry">
            <mxPoint x="595" y="390" as="sourcePoint" />
            <mxPoint x="645" y="340" as="targetPoint" />
          </mxGeometry>
        </mxCell>
      </root>
    </mxGraphModel>
  </diagram>
</mxfile>
